<svg xmlns="http://www.w3.org/2000/svg" viewBox="0 0 64 64" role="img" aria-label="AI Patents Favicon">
  <defs>
    <linearGradient id="bg" x1="0" y1="0" x2="1" y2="1">
      <stop offset="0%" stop-color="#0f172a"/>
      <stop offset="100%" stop-color="#334155"/>
    </linearGradient>
    <linearGradient id="paper" x1="0" y1="0" x2="0" y2="1">
      <stop offset="0%" stop-color="#f8fafc"/>
      <stop offset="100%" stop-color="#e2e8f0"/>
    </linearGradient>
    <linearGradient id="badge" x1="0" y1="0" x2="1" y2="1">
      <stop offset="0%" stop-color="#99f6e4"/>
      <stop offset="55%" stop-color="#22d3ee"/>
      <stop offset="100%" stop-color="#0284c7"/>
    </linearGradient>
    <radialGradient id="badgeGlass" cx="30%" cy="24%" r="78%">
      <stop offset="0%" stop-color="#ffffff" stop-opacity="0.62"/>
      <stop offset="38%" stop-color="#dff9ff" stop-opacity="0.32"/>
      <stop offset="100%" stop-color="#ffffff" stop-opacity="0"/>
    </radialGradient>
  </defs>

  <rect x="4" y="4" width="56" height="56" rx="14" fill="url(#bg)"/>

  <path d="M20 12h18l8 8v26a4 4 0 0 1-4 4H20a4 4 0 0 1-4-4V16a4 4 0 0 1 4-4z"
        fill="url(#paper)" stroke="#cbd5e1" stroke-width="1.5"/>
  <path d="M38 12v8h8" fill="none" stroke="#94a3b8" stroke-width="1.8" stroke-linecap="round" stroke-linejoin="round"/>

  <path d="M22 23h18M22 27h18M22 31h11M22 36h14" fill="none" stroke="#64748b" stroke-width="1.8" stroke-linecap="round"/>

  <circle cx="42.5" cy="44.5" r="8.4" fill="#22d3ee" opacity="0.18"/>
  <circle cx="42.5" cy="44.5" r="7.8" fill="none" stroke="#67e8f9" stroke-opacity="0.95" stroke-width="1.5"/>
  <circle cx="42.5" cy="44.5" r="6.9" fill="url(#badge)" stroke="#e0f7ff" stroke-opacity="0.75" stroke-width="0.8"/>
  <circle cx="42.5" cy="44.5" r="6.9" fill="url(#badgeGlass)"/>
  <ellipse cx="40.7" cy="41.3" rx="2.5" ry="1.2" fill="#ffffff" fill-opacity="0.48" transform="rotate(-20 40.7 41.3)"/>
  <path d="M39.4 48.7l1.7-2.4 1.4 1.2-0.8 2.6zM45.5 48.7l-1.7-2.4-1.4 1.2 0.8 2.6z"
        fill="#22d3ee" fill-opacity="0.9"/>
  <text x="42.5" y="46.8" text-anchor="middle" font-size="6.4" font-weight="800"
        font-family="Arial, Helvetica, sans-serif" fill="#f8fafc">AI</text>

</svg>
