<svg xmlns="http://www.w3.org/2000/svg" viewBox="0 0 64 64" role="img" aria-label="AI Patents Favicon">
  <defs>
    <linearGradient id="docFill" x1="0" y1="0" x2="0" y2="1">
      <stop offset="0%" stop-color="#fdfefe"/>
      <stop offset="100%" stop-color="#edf2fb"/>
    </linearGradient>
    <linearGradient id="aiFill" x1="0" y1="0" x2="1" y2="1">
      <stop offset="0%" stop-color="#b9f0ff"/>
      <stop offset="100%" stop-color="#2daee5"/>
    </linearGradient>
  </defs>

  <g transform="translate(32 32) scale(1.22) translate(-32 -32)">
    <path
      d="M14 8h22l12 12v30a6 6 0 0 1-6 6H14a6 6 0 0 1-6-6V14a6 6 0 0 1 6-6z"
      fill="url(#docFill)"
      stroke="#b4c5ed"
      stroke-width="1.8"
    />
    <path
      d="M36 8v12h12"
      fill="none"
      stroke="#5f7dd8"
      stroke-width="2.1"
      stroke-linecap="round"
      stroke-linejoin="round"
    />
    <path
      d="M18 24h20M18 30h18M18 36h12"
      fill="none"
      stroke="#5f7dd8"
      stroke-width="2.2"
      stroke-linecap="round"
    />

    <circle cx="42.5" cy="43.5" r="10.5" fill="url(#aiFill)" stroke="#9de6fa" stroke-width="2" />
    <text
      x="42.5"
      y="47.2"
      text-anchor="middle"
      font-size="8"
      font-weight="800"
      font-family="Arial, Helvetica, sans-serif"
      fill="#ffffff"
    >AI</text>
  </g>
</svg>
